<?xml version="1.0"?>
<svg xmlns="http://www.w3.org/2000/svg" height="512px" viewBox="-33 -100 1063.7506 1063" width="512px"><g><path d="m566.332031 254.230469-151.777343-22.148438 28.882812 99.679688 146.964844 4.085937-6.625-38.066406c-7.390625-13.660156-13.277344-28.253906-17.445313-43.550781zm174.816407 454.882812c40.949218 0 74.152343 33.214844 74.152343 74.152344 0 40.957031-33.203125 74.15625-74.152343 74.15625-40.945313 0-74.152344-33.199219-74.152344-74.15625 0-40.9375 33.207031-74.152344 74.152344-74.152344zm11.113281 63.050781c-9.859375-9.863281-26.828125-2.875-26.828125 11.101563 0 13.980469 16.96875 20.96875 26.828125 11.121094 6.136719-6.136719 6.136719-16.097657 0-22.222657zm-357.160157-63.050781c40.945313 0 74.152344 33.214844 74.152344 74.152344 0 40.957031-33.210937 74.15625-74.152344 74.15625-40.949218 0-74.15625-33.199219-74.15625-74.15625 0-40.9375 33.207032-74.152344 74.15625-74.152344zm11.109376 63.050781c-9.859376-9.863281-26.820313-2.875-26.820313 11.101563 0 13.980469 16.964844 20.96875 26.820313 11.121094 6.132812-6.136719 6.132812-16.097657 0-22.222657zm250.214843-397.261718 18.960938 109c45.921875-12.28125 85.042969-40.738282 110.726562-79.179688-46.460937 4.753906-91.75-6.238281-129.6875-29.820312zm206.105469 6.332031c-31.25 88.820313-109.820312 153.003906-205.085938 165.46875l-310.285156 40.59375c-15.710937 3.703125-23.773437 21.984375-14.777344 36.332031 4.914063 7.828125 12.398438 11.816406 21.738282 11.816406h457.890625c16.136719 0 29.21875 13.085938 29.21875 29.222657 0 16.140625-13.082031 29.222656-29.21875 29.222656h-457.890625c-60.921875 0-101.988282-62.859375-75.8125-118.285156 3.449218-7.289063 7.738281-13.84375 12.765625-19.609375l-150.789063-371.210938-36.570312-26.476562c-32.625 17.472656-72.972656 7.261718-93.539063-23.378906-22.136719-32.96875-13.292969-77.621094 19.652344-99.738282 32.96875-22.132812 77.613281-13.289062 99.730469 19.652344 10.910156 16.257812 15.152344 37.242188 10.117187 57.460938l35.828125 25.9375 383.660156 55.984374c3.035157-111.019531 94.007813-200.109374 205.765626-200.109374 56.859374 0 108.351562 23.0625 145.601562 60.34375l34.832031-34.84375c11.417969-11.410157 29.917969-11.410157 41.328125 0 11.40625 11.40625 11.40625 29.910156 0 41.316406l-40.816406 40.8125c54.40625 100.003906 16.871094 225.40625-83.34375 279.488281zm-183.539062-170.789063c-11.410157-11.414062-11.410157-29.910156 0-41.328124 11.402343-11.410157 29.910156-11.410157 41.3125 0l37.785156 37.78125 111.121094-111.125c-56.230469-58.136719-151.996094-56.574219-208.519532-.046876-57.554687 57.554688-57.554687 150.898438 0 208.464844 57.570313 57.558594 150.910156 57.558594 208.46875 0 42.871094-42.859375 53.796875-105.554687 32.832032-158.5625l-123.242188 123.246094c-11.40625 11.414062-29.910156 11.414062-41.3125 0zm-597.820313-123.179687c-6.472656-9.644531-22.210937-7.246094-24.609375 4.960937-2.429688 12.390626 11.261719 20.449219 20.929688 13.964844 6.144531-4.125 7.78125-12.808594 3.679687-18.925781zm261.9375 441.730469c30.820313-3.167969 62.511719-8.082032 93.332031-12.125l-37.101562-128.082032-114.480469-3.183593zm117.339844-138.511719 34.414062 118.753906 122.898438-16.082031-17.183594-98.777344zm-199.527344-63.804687 121.394531 3.375-31.0625-107.210938-140.859375-20.5625zm0 0" fill-rule="evenodd" data-original="#000000" class="active-path" data-old_color="#000000" fill="#536DFE"/></g> </svg>
