<?xml version="1.0"?>
<svg xmlns="http://www.w3.org/2000/svg" xmlns:xlink="http://www.w3.org/1999/xlink" version="1.1" id="Capa_1" x="0px" y="0px" viewBox="0 0 512.001 512.001" style="enable-background:new 0 0 512.001 512.001;" xml:space="preserve" width="512px" height="512px"><g><g>
	<g>
		<path d="M507.519,116.384C503.721,111.712,498.021,109,492,109h-7.208L381.65,5.858c-7.811-7.811-20.475-7.811-28.285,0    l-43.359,43.359l-43.36-43.359c-7.811-7.811-20.475-7.811-28.285,0L135.219,109h-5.483l-1.484-13.632l-0.053-0.438    C121.099,40.811,74.583,0,20,0C8.954,0,0,8.954,0,20s8.954,20,20,20c34.506,0,63.923,25.749,68.512,59.928l23.775,218.42    C91.5,327.785,77,348.724,77,373c0,0.169,0.021,0.332,0.025,0.5C77.021,373.668,77,373.831,77,374c0,33.084,26.916,60,60,60h8.157    c-2.036,5.967-3.157,12.353-3.157,19c0,32.533,26.468,59,59,59s59-26.467,59-59c0-6.647-1.121-13.033-3.157-19h86.314    c-2.036,5.967-3.157,12.353-3.157,19c0,32.533,26.468,59,59,59c32.532,0,59-26.467,59-59c0-32.533-26.468-59-59-59H137    c-11.028,0-20-8.972-20-20c0-0.169-0.021-0.332-0.025-0.5c0.004-0.168,0.025-0.331,0.025-0.5c0-11.028,8.972-20,20-20h255.331    c35.503,0,68.085-21.966,83.006-55.962c4.439-10.114-0.161-21.913-10.275-26.352c-10.113-4.44-21.913,0.161-26.352,10.275    C430.299,300.125,411.661,313,392.331,313h-240.39L134.09,149h333.309l-9.786,46.917c-2.255,10.813,4.683,21.407,15.495,23.662    c1.378,0.288,2.751,0.425,4.104,0.425c9.271,0,17.59-6.485,19.559-15.92l14.809-71    C512.808,127.19,511.316,121.056,507.519,116.384z M399,434c10.477,0,19,8.523,19,19s-8.523,19-19,19s-19-8.523-19-19    S388.523,434,399,434z M201,434c10.477,0,19,8.524,19,19c0,10.477-8.523,19-19,19s-19-8.523-19-19S190.523,434,201,434z     M250.223,109h-58.435l60.716-60.716l29.217,29.218L250.223,109z M306.792,109l60.716-60.716L428.223,109H306.792z" data-original="#000000" class="active-path" data-old_color="#000000" fill="#FF5252"/>
	</g>
</g></g> </svg>
