<?xml version="1.0" encoding="iso-8859-1"?>
<!-- Generator: Adobe Illustrator 19.0.0, SVG Export Plug-In . SVG Version: 6.00 Build 0)  -->
<svg version="1.1" id="Layer_1" xmlns="http://www.w3.org/2000/svg" xmlns:xlink="http://www.w3.org/1999/xlink" x="0px" y="0px"
	 viewBox="0 0 512 512" style="enable-background:new 0 0 512 512;" xml:space="preserve">
<g>
	<g>
		<path d="M509.817,246.75c-0.929-1.857-23.221-45.993-64.914-90.466c-24.772-26.424-51.341-47.55-78.968-62.793
			C330.679,74.04,293.692,64.178,256,64.178c-37.692,0-74.679,9.862-109.935,29.314c-27.628,15.243-54.197,36.369-78.968,62.793
			C25.403,200.758,3.112,244.893,2.183,246.75c-2.911,5.822-2.911,12.676,0,18.499c0.928,1.858,23.22,45.993,64.914,90.466
			c24.773,26.424,51.341,47.551,78.968,62.793c35.256,19.452,72.243,29.315,109.935,29.315s74.678-9.863,109.935-29.315
			c27.627-15.243,54.197-36.37,78.968-62.793c41.693-44.473,63.984-88.608,64.914-90.466
			C512.728,259.426,512.728,252.573,509.817,246.75z M256,406.458c-55.863,0-109.02-26.33-157.995-78.256
			c-27.053-28.685-45.394-57.794-53.725-72.203C63.986,221.93,139.831,105.543,256,105.542c55.864,0,109.021,26.329,157.996,78.256
			c27.057,28.69,45.399,57.803,53.724,72.203C448.015,290.071,372.169,406.458,256,406.458z"/>
	</g>
</g>
<g>
	<g>
		<path d="M256,171.142c-46.791,0-84.86,38.068-84.86,84.86c0,46.792,38.068,84.86,84.86,84.86s84.86-38.068,84.86-84.86
			C340.86,209.21,302.792,171.142,256,171.142z M256,299.495c-23.983,0-43.495-19.511-43.495-43.495
			c0-23.983,19.512-43.495,43.495-43.495c23.984,0,43.495,19.512,43.495,43.495S279.984,299.495,256,299.495z"/>
	</g>
</g>
<g>
</g>
<g>
</g>
<g>
</g>
<g>
</g>
<g>
</g>
<g>
</g>
<g>
</g>
<g>
</g>
<g>
</g>
<g>
</g>
<g>
</g>
<g>
</g>
<g>
</g>
<g>
</g>
<g>
</g>
</svg>
